<svg height="15px" viewBox="0 -32 448.01297 448" width="15px" xmlns="http://www.w3.org/2000/svg"><path d="m400 .277344v287.457031c1.601562.070313 3.199219.273437 4.800781.273437h11.199219v-287.9999995h-11.199219c-1.601562 0-3.199219.1992185-4.800781.2695315zm0 0"/><path d="m179.023438 72.007812h-3.023438v144h4.800781c29.601563.042969 58.828125 6.617188 85.597657 19.253907l86.96875 41.199219c9.742187 4.53125 20.042968 7.738281 30.632812 9.539062v-284c-10.574219 1.804688-20.863281 5.015625-30.59375 9.542969l-85.335938 40.464843c-27.847656 13.132813-58.253906 19.960938-89.046874 20zm0 0"/><path d="m432 121.375v45.261719c9.597656-3.382813 16.011719-12.453125 16.011719-22.628907 0-10.175781-6.414063-19.246093-16.011719-22.632812zm0 0"/><path d="m134.113281 288.804688-5.257812-55.367188-.136719-1.429688h-48.71875v144c0 4.417969 3.582031 8 8 8h46.398438c2.261718-.003906 4.414062-.960937 5.929687-2.636718 1.515625-1.675782 2.25-3.917969 2.023437-6.164063l-8.222656-86.402343zm0 0"/><path d="m160 72.007812h-88c-39.765625 0-72 32.234376-72 72 0 39.761719 32.234375 72 72 72h88zm0 0"/><path d="m160 280.007812v-48h-15.199219l4.566407 48zm0 0"/></svg>