<svg height="15" viewBox="0 0 64 64" width="15" xmlns="http://www.w3.org/2000/svg"><path d="m47.707 2.293a1 1 0 0 0 -.707-.293h-38a1 1 0 0 0 -1 1v58a1 1 0 0 0 1 1h46a1 1 0 0 0 1-1v-50a1 1 0 0 0 -.293-.707zm.293 3.121 4.586 4.586h-4.586zm6 54.586h-44v-56h36v7a1 1 0 0 0 1 1h7z"/><path d="m28 6h-16v12h16zm-2 10h-12v-8h12z"/><path d="m44 6h-14v12h14zm-2 10h-10v-8h10z"/><path d="m42 20h10v2h-10z"/><path d="m42 28h10v2h-10z"/><path d="m42 24h10v2h-10z"/><path d="m46 32h2v2h-2z"/><path d="m12 20h28v2h-28z"/><path d="m12 24h6v2h-6z"/><path d="m20 24h2v2h-2z"/><path d="m24 24h3v2h-3z"/><path d="m29 24h11v2h-11z"/><path d="m12 28h28v2h-28z"/><path d="m12 32h28v2h-28z"/><path d="m42 32h2v2h-2z"/><path d="m50 32h2v2h-2z"/><path d="m30 44h22v2h-22z"/><path d="m31 48h20v2h-20z"/><path d="m30 52h22v2h-22z"/><path d="m32 56h20v2h-20z"/><path d="m12 58h16v-14h-16zm2-12h12v10h-12z"/><path d="m12 42h40v-6h-40zm2-4h36v2h-36z"/></svg>